<svg xmlns="http://www.w3.org/2000/svg" id="export" class="canvas" preserveAspectRatio="xMidYMid meet" style="" width="356" height="814"><rect id="background" fill="#fff" pointer-events="all" width="356" height="814"/><g id="origin" transform="translate(16.13966064453125, 16.13966064453125) scale(1)"><g id="clusters" class="clusters"/><g id="edge-paths" class="edge-paths"><defs><marker id="arrowhead" viewBox="0 0 10 10" refX="9" refY="5" markerUnits="strokeWidth" markerWidth="8" markerHeight="6" orient="auto" style="fill: rgb(0, 0, 0);"><path d="M 0 0 L 10 5 L 0 10 L 4 5 z" style="stroke-width: 1;"/></marker><marker id="arrowhead-select" viewBox="0 0 10 10" refX="9" refY="5" markerUnits="strokeWidth" markerWidth="8" markerHeight="6" orient="auto" style="fill: rgba(220, 0, 0, 0.9);"><path d="M 0 0 L 10 5 L 0 10 L 4 5 z" style="stroke-width: 1;"/></marker><marker id="arrowhead-hover" viewBox="0 0 10 10" refX="9" refY="5" markerUnits="strokeWidth" markerWidth="8" markerHeight="6" orient="auto" style="fill: rgba(220, 0, 0, 0.9);"><path d="M 0 0 L 10 5 L 0 10 L 4 5 z" style="stroke-width: 1;"/></marker></defs><path id="edge-Q" class="edge-path" d="M206.42041015625,23L206.42041015625,24.666666666666668C206.42041015625,26.333333333333332,206.42041015625,29.666666666666668,206.42041015625,35C206.42041015625,40.333333333333336,206.42041015625,47.666666666666664,206.42041015625,55C206.42041015625,62.333333333333336,206.42041015625,69.66666666666667,206.42041015625,75C206.42041015625,80.33333333333333,206.42041015625,83.66666666666667,206.42041015625,85.33333333333333L206.42041015625,87" style="stroke: rgb(0, 0, 0); stroke-width: 1px; fill: none; marker-end: url(&quot;#arrowhead&quot;);"/><path class="edge-path-hit-test" d="M206.42041015625,23L206.42041015625,24.666666666666668C206.42041015625,26.333333333333332,206.42041015625,29.666666666666668,206.42041015625,35C206.42041015625,40.333333333333336,206.42041015625,47.666666666666664,206.42041015625,55C206.42041015625,62.333333333333336,206.42041015625,69.66666666666667,206.42041015625,75C206.42041015625,80.33333333333333,206.42041015625,83.66666666666667,206.42041015625,85.33333333333333L206.42041015625,87" style="pointer-events: stroke; stroke-width: 0.5em; fill: none; stroke: rgb(0, 0, 0); stroke-opacity: 0.001;"/><path id="edge-K" class="edge-path" d="M194.57958984375,325L194.57958984375,326.6666666666667C194.57958984375,328.3333333333333,194.57958984375,331.6666666666667,194.57958984375,337C194.57958984375,342.3333333333333,194.57958984375,349.6666666666667,194.57958984375,357C194.57958984375,364.3333333333333,194.57958984375,371.6666666666667,194.57958984375,377C194.57958984375,382.3333333333333,194.57958984375,385.6666666666667,194.57958984375,387.3333333333333L194.57958984375,389" style="stroke: rgb(0, 0, 0); stroke-width: 1px; fill: none; marker-end: url(&quot;#arrowhead&quot;);"/><path class="edge-path-hit-test" d="M194.57958984375,325L194.57958984375,326.6666666666667C194.57958984375,328.3333333333333,194.57958984375,331.6666666666667,194.57958984375,337C194.57958984375,342.3333333333333,194.57958984375,349.6666666666667,194.57958984375,357C194.57958984375,364.3333333333333,194.57958984375,371.6666666666667,194.57958984375,377C194.57958984375,382.3333333333333,194.57958984375,385.6666666666667,194.57958984375,387.3333333333333L194.57958984375,389" style="pointer-events: stroke; stroke-width: 0.5em; fill: none; stroke: rgb(0, 0, 0); stroke-opacity: 0.001;"/><path id="edge-V" class="edge-path" d="M31.85009765625,455L31.85009765625,456.6666666666667C31.85009765625,458.3333333333333,31.85009765625,461.6666666666667,31.85009765625,467C31.85009765625,472.3333333333333,31.85009765625,479.6666666666667,31.85009765625,487C31.85009765625,494.3333333333333,31.85009765625,501.6666666666667,31.85009765625,507C31.85009765625,512.3333333333334,31.85009765625,515.6666666666666,31.85009765625,517.3333333333334L31.85009765625,519" style="stroke: rgb(0, 0, 0); stroke-width: 1px; fill: none; marker-end: url(&quot;#arrowhead&quot;);"/><path class="edge-path-hit-test" d="M31.85009765625,455L31.85009765625,456.6666666666667C31.85009765625,458.3333333333333,31.85009765625,461.6666666666667,31.85009765625,467C31.85009765625,472.3333333333333,31.85009765625,479.6666666666667,31.85009765625,487C31.85009765625,494.3333333333333,31.85009765625,501.6666666666667,31.85009765625,507C31.85009765625,512.3333333333334,31.85009765625,515.6666666666666,31.85009765625,517.3333333333334L31.85009765625,519" style="pointer-events: stroke; stroke-width: 0.5em; fill: none; stroke: rgb(0, 0, 0); stroke-opacity: 0.001;"/><path id="edge-/Reshape_output_0" class="edge-path" d="M206.42041015625,110L206.42041015625,111.66666666666667C206.42041015625,113.33333333333333,206.42041015625,116.66666666666667,206.42041015625,120C206.42041015625,123.33333333333333,206.42041015625,126.66666666666667,206.42041015625,128.33333333333334L206.42041015625,130" style="stroke: rgb(0, 0, 0); stroke-width: 1px; fill: none; marker-end: url(&quot;#arrowhead&quot;);"/><path class="edge-path-hit-test" d="M206.42041015625,110L206.42041015625,111.66666666666667C206.42041015625,113.33333333333333,206.42041015625,116.66666666666667,206.42041015625,120C206.42041015625,123.33333333333333,206.42041015625,126.66666666666667,206.42041015625,128.33333333333334L206.42041015625,130" style="pointer-events: stroke; stroke-width: 0.5em; fill: none; stroke: rgb(0, 0, 0); stroke-opacity: 0.001;"/><path id="edge-/Transpose_output_0" class="edge-path" d="M238.2705078125,149.978776208556L246.42277018229166,152.14898017379667C254.57503255208334,154.31918413903733,270.8795572916667,158.65959206951868,279.0318196614583,162.496462701426C287.18408203125,166.33333333333334,287.18408203125,169.66666666666666,287.18408203125,171.33333333333334L287.18408203125,173" style="stroke: rgb(0, 0, 0); stroke-width: 1px; fill: none; marker-end: url(&quot;#arrowhead&quot;);"/><path class="edge-path-hit-test" d="M238.2705078125,149.978776208556L246.42277018229166,152.14898017379667C254.57503255208334,154.31918413903733,270.8795572916667,158.65959206951868,279.0318196614583,162.496462701426C287.18408203125,166.33333333333334,287.18408203125,169.66666666666666,287.18408203125,171.33333333333334L287.18408203125,173" style="pointer-events: stroke; stroke-width: 0.5em; fill: none; stroke: rgb(0, 0, 0); stroke-opacity: 0.001;"/><path id="edge-/Transpose_output_0" class="edge-path" d="M174.5703125,148.39603990824446L163.32865397135416,150.8300332568704C152.08699544270834,153.2640266054963,129.60367838541666,158.13201330274816,118.36201985677083,164.1493399847074C107.120361328125,170.16666666666666,107.120361328125,177.33333333333334,107.120361328125,184.5C107.120361328125,191.66666666666666,107.120361328125,198.83333333333334,107.120361328125,206C107.120361328125,213.16666666666666,107.120361328125,220.33333333333334,107.120361328125,227.5C107.120361328125,234.66666666666666,107.120361328125,241.83333333333334,107.120361328125,249C107.120361328125,256.1666666666667,107.120361328125,263.3333333333333,107.120361328125,270.5C107.120361328125,277.6666666666667,107.120361328125,284.8333333333333,107.120361328125,292C107.120361328125,299.1666666666667,107.120361328125,306.3333333333333,107.120361328125,313.5C107.120361328125,320.6666666666667,107.120361328125,327.8333333333333,107.120361328125,335.0833333333333C107.120361328125,342.3333333333333,107.120361328125,349.6666666666667,107.120361328125,357C107.120361328125,364.3333333333333,107.120361328125,371.6666666666667,107.120361328125,378.9166666666667C107.120361328125,386.1666666666667,107.120361328125,393.3333333333333,107.120361328125,400.5C107.120361328125,407.6666666666667,107.120361328125,414.8333333333333,107.120361328125,422C107.120361328125,429.1666666666667,107.120361328125,436.3333333333333,107.120361328125,443.5C107.120361328125,450.6666666666667,107.120361328125,457.8333333333333,108.5948458584872,463.1666666666667C110.06933038884944,468.5,113.01829944957387,472,114.49278397993608,473.75L115.9672685102983,475.5" style="stroke: rgb(0, 0, 0); stroke-width: 1px; fill: none; marker-end: url(&quot;#arrowhead&quot;);"/><path class="edge-path-hit-test" d="M174.5703125,148.39603990824446L163.32865397135416,150.8300332568704C152.08699544270834,153.2640266054963,129.60367838541666,158.13201330274816,118.36201985677083,164.1493399847074C107.120361328125,170.16666666666666,107.120361328125,177.33333333333334,107.120361328125,184.5C107.120361328125,191.66666666666666,107.120361328125,198.83333333333334,107.120361328125,206C107.120361328125,213.16666666666666,107.120361328125,220.33333333333334,107.120361328125,227.5C107.120361328125,234.66666666666666,107.120361328125,241.83333333333334,107.120361328125,249C107.120361328125,256.1666666666667,107.120361328125,263.3333333333333,107.120361328125,270.5C107.120361328125,277.6666666666667,107.120361328125,284.8333333333333,107.120361328125,292C107.120361328125,299.1666666666667,107.120361328125,306.3333333333333,107.120361328125,313.5C107.120361328125,320.6666666666667,107.120361328125,327.8333333333333,107.120361328125,335.0833333333333C107.120361328125,342.3333333333333,107.120361328125,349.6666666666667,107.120361328125,357C107.120361328125,364.3333333333333,107.120361328125,371.6666666666667,107.120361328125,378.9166666666667C107.120361328125,386.1666666666667,107.120361328125,393.3333333333333,107.120361328125,400.5C107.120361328125,407.6666666666667,107.120361328125,414.8333333333333,107.120361328125,422C107.120361328125,429.1666666666667,107.120361328125,436.3333333333333,107.120361328125,443.5C107.120361328125,450.6666666666667,107.120361328125,457.8333333333333,108.5948458584872,463.1666666666667C110.06933038884944,468.5,113.01829944957387,472,114.49278397993608,473.75L115.9672685102983,475.5" style="pointer-events: stroke; stroke-width: 0.5em; fill: none; stroke: rgb(0, 0, 0); stroke-opacity: 0.001;"/><path id="edge-/Reshape_1_output_0" class="edge-path" d="M204.49439612100292,412L205.9313245669816,413.6666666666667C207.36825301296028,415.3333333333333,210.2421099049176,418.6666666666667,211.67903835089632,422C213.115966796875,425.3333333333333,213.115966796875,428.6666666666667,213.115966796875,430.3333333333333L213.115966796875,432" style="stroke: rgb(0, 0, 0); stroke-width: 1px; fill: none; marker-end: url(&quot;#arrowhead&quot;);"/><path class="edge-path-hit-test" d="M204.49439612100292,412L205.9313245669816,413.6666666666667C207.36825301296028,415.3333333333333,210.2421099049176,418.6666666666667,211.67903835089632,422C213.115966796875,425.3333333333333,213.115966796875,428.6666666666667,213.115966796875,430.3333333333333L213.115966796875,432" style="pointer-events: stroke; stroke-width: 0.5em; fill: none; stroke: rgb(0, 0, 0); stroke-opacity: 0.001;"/><path id="edge-/Reshape_2_output_0" class="edge-path" d="M31.85009765625,542L31.85009765625,543.6666666666666C31.85009765625,545.3333333333334,31.85009765625,548.6666666666666,31.85009765625,552C31.85009765625,555.3333333333334,31.85009765625,558.6666666666666,31.85009765625,560.3333333333334L31.85009765625,562" style="stroke: rgb(0, 0, 0); stroke-width: 1px; fill: none; marker-end: url(&quot;#arrowhead&quot;);"/><path class="edge-path-hit-test" d="M31.85009765625,542L31.85009765625,543.6666666666666C31.85009765625,545.3333333333334,31.85009765625,548.6666666666666,31.85009765625,552C31.85009765625,555.3333333333334,31.85009765625,558.6666666666666,31.85009765625,560.3333333333334L31.85009765625,562" style="pointer-events: stroke; stroke-width: 0.5em; fill: none; stroke: rgb(0, 0, 0); stroke-opacity: 0.001;"/><path id="edge-/Transpose_1_output_0" class="edge-path" d="M31.85009765625,585L31.85009765625,586.6666666666666C31.85009765625,588.3333333333334,31.85009765625,591.6666666666666,48.797200520833336,596.1873420739279C65.74430338541667,600.7080174811891,99.63850911458333,606.4160349623781,116.58561197916667,609.2700437029727L133.53271484375,612.1240524435673" style="stroke: rgb(0, 0, 0); stroke-width: 1px; fill: none; marker-end: url(&quot;#arrowhead&quot;);"/><path class="edge-path-hit-test" d="M31.85009765625,585L31.85009765625,586.6666666666666C31.85009765625,588.3333333333334,31.85009765625,591.6666666666666,48.797200520833336,596.1873420739279C65.74430338541667,600.7080174811891,99.63850911458333,606.4160349623781,116.58561197916667,609.2700437029727L133.53271484375,612.1240524435673" style="pointer-events: stroke; stroke-width: 0.5em; fill: none; stroke: rgb(0, 0, 0); stroke-opacity: 0.001;"/><path id="edge-/Shape_output_0" class="edge-path" d="M287.18408203125,196L287.18408203125,197.66666666666666C287.18408203125,199.33333333333334,287.18408203125,202.66666666666666,287.18408203125,206C287.18408203125,209.33333333333334,287.18408203125,212.66666666666666,287.18408203125,214.33333333333334L287.18408203125,216" style="stroke: rgb(0, 0, 0); stroke-width: 1px; fill: none; marker-end: url(&quot;#arrowhead&quot;);"/><path class="edge-path-hit-test" d="M287.18408203125,196L287.18408203125,197.66666666666666C287.18408203125,199.33333333333334,287.18408203125,202.66666666666666,287.18408203125,206C287.18408203125,209.33333333333334,287.18408203125,212.66666666666666,287.18408203125,214.33333333333334L287.18408203125,216" style="pointer-events: stroke; stroke-width: 0.5em; fill: none; stroke: rgb(0, 0, 0); stroke-opacity: 0.001;"/><path id="edge-/Slice_output_0" class="edge-path" d="M287.18408203125,239L287.18408203125,240.66666666666666C287.18408203125,242.33333333333334,287.18408203125,245.66666666666666,287.18408203125,249C287.18408203125,252.33333333333334,287.18408203125,255.66666666666666,287.18408203125,257.3333333333333L287.18408203125,259" style="stroke: rgb(0, 0, 0); stroke-width: 1px; fill: none; marker-end: url(&quot;#arrowhead&quot;);"/><path class="edge-path-hit-test" d="M287.18408203125,239L287.18408203125,240.66666666666666C287.18408203125,242.33333333333334,287.18408203125,245.66666666666666,287.18408203125,249C287.18408203125,252.33333333333334,287.18408203125,255.66666666666666,287.18408203125,257.3333333333333L287.18408203125,259" style="pointer-events: stroke; stroke-width: 0.5em; fill: none; stroke: rgb(0, 0, 0); stroke-opacity: 0.001;"/><path id="edge-/Cast_output_0" class="edge-path" d="M287.18408203125,282L287.18408203125,283.6666666666667C287.18408203125,285.3333333333333,287.18408203125,288.6666666666667,287.18408203125,292C287.18408203125,295.3333333333333,287.18408203125,298.6666666666667,287.18408203125,300.3333333333333L287.18408203125,302" style="stroke: rgb(0, 0, 0); stroke-width: 1px; fill: none; marker-end: url(&quot;#arrowhead&quot;);"/><path class="edge-path-hit-test" d="M287.18408203125,282L287.18408203125,283.6666666666667C287.18408203125,285.3333333333333,287.18408203125,288.6666666666667,287.18408203125,292C287.18408203125,295.3333333333333,287.18408203125,298.6666666666667,287.18408203125,300.3333333333333L287.18408203125,302" style="pointer-events: stroke; stroke-width: 0.5em; fill: none; stroke: rgb(0, 0, 0); stroke-opacity: 0.001;"/><path id="edge-/Sqrt_output_0" class="edge-path" d="M287.18408203125,325L287.18408203125,326.6666666666667C287.18408203125,328.3333333333333,287.18408203125,331.6666666666667,287.18408203125,335.0833333333333C287.18408203125,338.5,287.18408203125,342,287.18408203125,343.75L287.18408203125,345.5" style="stroke: rgb(0, 0, 0); stroke-width: 1px; fill: none; marker-end: url(&quot;#arrowhead&quot;);"/><path class="edge-path-hit-test" d="M287.18408203125,325L287.18408203125,326.6666666666667C287.18408203125,328.3333333333333,287.18408203125,331.6666666666667,287.18408203125,335.0833333333333C287.18408203125,338.5,287.18408203125,342,287.18408203125,343.75L287.18408203125,345.5" style="pointer-events: stroke; stroke-width: 0.5em; fill: none; stroke: rgb(0, 0, 0); stroke-opacity: 0.001;"/><path id="edge-/Div_output_0" class="edge-path" d="M287.18408203125,368.5L287.18408203125,370.25C287.18408203125,372,287.18408203125,375.5,287.18408203125,378.9166666666667C287.18408203125,382.3333333333333,287.18408203125,385.6666666666667,287.18408203125,387.3333333333333L287.18408203125,389" style="stroke: rgb(0, 0, 0); stroke-width: 1px; fill: none; marker-end: url(&quot;#arrowhead&quot;);"/><path class="edge-path-hit-test" d="M287.18408203125,368.5L287.18408203125,370.25C287.18408203125,372,287.18408203125,375.5,287.18408203125,378.9166666666667C287.18408203125,382.3333333333333,287.18408203125,385.6666666666667,287.18408203125,387.3333333333333L287.18408203125,389" style="pointer-events: stroke; stroke-width: 0.5em; fill: none; stroke: rgb(0, 0, 0); stroke-opacity: 0.001;"/><path id="edge-/Cast_1_output_0" class="edge-path" d="M269.646728515625,403.136901540232L248.73779296875,406.2807512835266C227.828857421875,409.42460102682134,186.010986328125,415.71230051341064,165.10205078125,420.522816923372C144.193115234375,425.3333333333333,144.193115234375,428.6666666666667,144.193115234375,430.3333333333333L144.193115234375,432" style="stroke: rgb(0, 0, 0); stroke-width: 1px; fill: none; marker-end: url(&quot;#arrowhead&quot;);"/><path class="edge-path-hit-test" d="M269.646728515625,403.136901540232L248.73779296875,406.2807512835266C227.828857421875,409.42460102682134,186.010986328125,415.71230051341064,165.10205078125,420.522816923372C144.193115234375,425.3333333333333,144.193115234375,428.6666666666667,144.193115234375,430.3333333333333L144.193115234375,432" style="pointer-events: stroke; stroke-width: 0.5em; fill: none; stroke: rgb(0, 0, 0); stroke-opacity: 0.001;"/><path id="edge-/Cast_1_output_0" class="edge-path" d="M297.0988883085029,412L298.5358167544816,413.6666666666667C299.9727452004603,415.3333333333333,302.84660209241764,418.6666666666667,304.2835305383963,422C305.720458984375,425.3333333333333,305.720458984375,428.6666666666667,305.720458984375,430.3333333333333L305.720458984375,432" style="stroke: rgb(0, 0, 0); stroke-width: 1px; fill: none; marker-end: url(&quot;#arrowhead&quot;);"/><path class="edge-path-hit-test" d="M297.0988883085029,412L298.5358167544816,413.6666666666667C299.9727452004603,415.3333333333333,302.84660209241764,418.6666666666667,304.2835305383963,422C305.720458984375,425.3333333333333,305.720458984375,428.6666666666667,305.720458984375,430.3333333333333L305.720458984375,432" style="pointer-events: stroke; stroke-width: 0.5em; fill: none; stroke: rgb(0, 0, 0); stroke-opacity: 0.001;"/><path id="edge-/Transpose_2_output_0" class="edge-path" d="M213.115966796875,455L213.115966796875,456.6666666666667C213.115966796875,458.3333333333333,213.115966796875,461.6666666666667,222.7288818359375,466.1885987898684C232.341796875,470.7105309130703,251.567626953125,476.4210618261406,261.1805419921875,479.2763272826757L270.79345703125,482.1315927392108" style="stroke: rgb(0, 0, 0); stroke-width: 1px; fill: none; marker-end: url(&quot;#arrowhead&quot;);"/><path class="edge-path-hit-test" d="M213.115966796875,455L213.115966796875,456.6666666666667C213.115966796875,458.3333333333333,213.115966796875,461.6666666666667,222.7288818359375,466.1885987898684C232.341796875,470.7105309130703,251.567626953125,476.4210618261406,261.1805419921875,479.2763272826757L270.79345703125,482.1315927392108" style="pointer-events: stroke; stroke-width: 0.5em; fill: none; stroke: rgb(0, 0, 0); stroke-opacity: 0.001;"/><path id="edge-/Sqrt_1_output_0" class="edge-path" d="M144.193115234375,455L144.193115234375,456.6666666666667C144.193115234375,458.3333333333333,144.193115234375,461.6666666666667,142.71863070401278,465.0833333333333C141.2441461736506,468.5,138.29517711292615,472,136.82069258256394,473.75L135.34620805220172,475.5" style="stroke: rgb(0, 0, 0); stroke-width: 1px; fill: none; marker-end: url(&quot;#arrowhead&quot;);"/><path class="edge-path-hit-test" d="M144.193115234375,455L144.193115234375,456.6666666666667C144.193115234375,458.3333333333333,144.193115234375,461.6666666666667,142.71863070401278,465.0833333333333C141.2441461736506,468.5,138.29517711292615,472,136.82069258256394,473.75L135.34620805220172,475.5" style="pointer-events: stroke; stroke-width: 0.5em; fill: none; stroke: rgb(0, 0, 0); stroke-opacity: 0.001;"/><path id="edge-/Mul_output_0" class="edge-path" d="M125.65673828125,498.5L125.65673828125,500.25C125.65673828125,502,125.65673828125,505.5,134.78662109375,509.68045512805014C143.91650390625,513.8609102561003,162.17626953125,518.7218205122005,171.30615234375,521.1522756402505L180.43603515625,523.5827307683006" style="stroke: rgb(0, 0, 0); stroke-width: 1px; fill: none; marker-end: url(&quot;#arrowhead&quot;);"/><path class="edge-path-hit-test" d="M125.65673828125,498.5L125.65673828125,500.25C125.65673828125,502,125.65673828125,505.5,134.78662109375,509.68045512805014C143.91650390625,513.8609102561003,162.17626953125,518.7218205122005,171.30615234375,521.1522756402505L180.43603515625,523.5827307683006" style="pointer-events: stroke; stroke-width: 0.5em; fill: none; stroke: rgb(0, 0, 0); stroke-opacity: 0.001;"/><path id="edge-/Sqrt_2_output_0" class="edge-path" d="M305.720458984375,455L305.720458984375,456.6666666666667C305.720458984375,458.3333333333333,305.720458984375,461.6666666666667,304.2459744540128,465.0833333333333C302.77148992365056,468.5,299.8225208629261,472,298.34803633256394,473.75L296.8735518022017,475.5" style="stroke: rgb(0, 0, 0); stroke-width: 1px; fill: none; marker-end: url(&quot;#arrowhead&quot;);"/><path class="edge-path-hit-test" d="M305.720458984375,455L305.720458984375,456.6666666666667C305.720458984375,458.3333333333333,305.720458984375,461.6666666666667,304.2459744540128,465.0833333333333C302.77148992365056,468.5,299.8225208629261,472,298.34803633256394,473.75L296.8735518022017,475.5" style="pointer-events: stroke; stroke-width: 0.5em; fill: none; stroke: rgb(0, 0, 0); stroke-opacity: 0.001;"/><path id="edge-/Mul_1_output_0" class="edge-path" d="M287.18408203125,498.5L287.18408203125,500.25C287.18408203125,502,287.18408203125,505.5,278.05419921875,509.68045512805014C268.92431640625,513.8609102561003,250.66455078125,518.7218205122005,241.53466796875,521.1522756402505L232.40478515625,523.5827307683006" style="stroke: rgb(0, 0, 0); stroke-width: 1px; fill: none; marker-end: url(&quot;#arrowhead&quot;);"/><path class="edge-path-hit-test" d="M287.18408203125,498.5L287.18408203125,500.25C287.18408203125,502,287.18408203125,505.5,278.05419921875,509.68045512805014C268.92431640625,513.8609102561003,250.66455078125,518.7218205122005,241.53466796875,521.1522756402505L232.40478515625,523.5827307683006" style="pointer-events: stroke; stroke-width: 0.5em; fill: none; stroke: rgb(0, 0, 0); stroke-opacity: 0.001;"/><path id="edge-/MatMul_output_0" class="edge-path" d="M206.42041015625,542L206.42041015625,543.6666666666666C206.42041015625,545.3333333333334,206.42041015625,548.6666666666666,206.42041015625,552C206.42041015625,555.3333333333334,206.42041015625,558.6666666666666,206.42041015625,560.3333333333334L206.42041015625,562" style="stroke: rgb(0, 0, 0); stroke-width: 1px; fill: none; marker-end: url(&quot;#arrowhead&quot;);"/><path class="edge-path-hit-test" d="M206.42041015625,542L206.42041015625,543.6666666666666C206.42041015625,545.3333333333334,206.42041015625,548.6666666666666,206.42041015625,552C206.42041015625,555.3333333333334,206.42041015625,558.6666666666666,206.42041015625,560.3333333333334L206.42041015625,562" style="pointer-events: stroke; stroke-width: 0.5em; fill: none; stroke: rgb(0, 0, 0); stroke-opacity: 0.001;"/><path id="edge-/Softmax_output_0" class="edge-path" d="M206.42041015625,585L206.42041015625,586.6666666666666C206.42041015625,588.3333333333334,206.42041015625,591.6666666666666,202.78449385295542,595C199.14857754966087,598.3333333333334,191.8767449430717,601.6666666666666,188.2408286397771,603.3333333333334L184.60491233648256,605" style="stroke: rgb(0, 0, 0); stroke-width: 1px; fill: none; marker-end: url(&quot;#arrowhead&quot;);"/><path class="edge-path-hit-test" d="M206.42041015625,585L206.42041015625,586.6666666666666C206.42041015625,588.3333333333334,206.42041015625,591.6666666666666,202.78449385295542,595C199.14857754966087,598.3333333333334,191.8767449430717,601.6666666666666,188.2408286397771,603.3333333333334L184.60491233648256,605" style="pointer-events: stroke; stroke-width: 0.5em; fill: none; stroke: rgb(0, 0, 0); stroke-opacity: 0.001;"/><path id="edge-/MatMul_1_output_0" class="edge-path" d="M159.51708984375,628L159.51708984375,629.6666666666666C159.51708984375,631.3333333333334,159.51708984375,634.6666666666666,159.51708984375,638C159.51708984375,641.3333333333334,159.51708984375,644.6666666666666,159.51708984375,646.3333333333334L159.51708984375,648" style="stroke: rgb(0, 0, 0); stroke-width: 1px; fill: none; marker-end: url(&quot;#arrowhead&quot;);"/><path class="edge-path-hit-test" d="M159.51708984375,628L159.51708984375,629.6666666666666C159.51708984375,631.3333333333334,159.51708984375,634.6666666666666,159.51708984375,638C159.51708984375,641.3333333333334,159.51708984375,644.6666666666666,159.51708984375,646.3333333333334L159.51708984375,648" style="pointer-events: stroke; stroke-width: 0.5em; fill: none; stroke: rgb(0, 0, 0); stroke-opacity: 0.001;"/><path id="edge-/Transpose_3_output_0" class="edge-path" d="M159.51708984375,671L159.51708984375,672.6666666666666C159.51708984375,674.3333333333334,159.51708984375,677.6666666666666,159.51708984375,681C159.51708984375,684.3333333333334,159.51708984375,687.6666666666666,159.51708984375,689.3333333333334L159.51708984375,691" style="stroke: rgb(0, 0, 0); stroke-width: 1px; fill: none; marker-end: url(&quot;#arrowhead&quot;);"/><path class="edge-path-hit-test" d="M159.51708984375,671L159.51708984375,672.6666666666666C159.51708984375,674.3333333333334,159.51708984375,677.6666666666666,159.51708984375,681C159.51708984375,684.3333333333334,159.51708984375,687.6666666666666,159.51708984375,689.3333333333334L159.51708984375,691" style="pointer-events: stroke; stroke-width: 0.5em; fill: none; stroke: rgb(0, 0, 0); stroke-opacity: 0.001;"/><path id="edge-A" class="edge-path" d="M159.51708984375,714L159.51708984375,717.6666666666666C159.51708984375,721.3333333333334,159.51708984375,728.6666666666666,159.51708984375,736C159.51708984375,743.3333333333334,159.51708984375,750.6666666666666,159.51708984375,754.3333333333334L159.51708984375,758" style="stroke: rgb(0, 0, 0); stroke-width: 1px; fill: none; marker-end: url(&quot;#arrowhead&quot;);"/><path class="edge-path-hit-test" d="M159.51708984375,714L159.51708984375,717.6666666666666C159.51708984375,721.3333333333334,159.51708984375,728.6666666666666,159.51708984375,736C159.51708984375,743.3333333333334,159.51708984375,750.6666666666666,159.51708984375,754.3333333333334L159.51708984375,758" style="pointer-events: stroke; stroke-width: 0.5em; fill: none; stroke: rgb(0, 0, 0); stroke-opacity: 0.001;"/></g><g id="edge-labels" class="edge-labels"><text class="edge-label" id="edge-label-edge-Q" style="opacity: 1; font-family: -apple-system, BlinkMacSystemFont, &quot;Segoe WPC&quot;, &quot;Segoe UI&quot;, Ubuntu, &quot;Droid Sans&quot;, sans-serif, &quot;PingFang SC&quot;; font-size: 10px;" transform="translate(211.42041015625,48)"><tspan xml:space="preserve" dy="1em" x="1">2×1024×256</tspan></text><text class="edge-label" id="edge-label-edge-K" style="opacity: 1; font-family: -apple-system, BlinkMacSystemFont, &quot;Segoe WPC&quot;, &quot;Segoe UI&quot;, Ubuntu, &quot;Droid Sans&quot;, sans-serif, &quot;PingFang SC&quot;; font-size: 10px;" transform="translate(199.57958984375,350)"><tspan xml:space="preserve" dy="1em" x="1">2×1024×256</tspan></text><text class="edge-label" id="edge-label-edge-V" style="opacity: 1; font-family: -apple-system, BlinkMacSystemFont, &quot;Segoe WPC&quot;, &quot;Segoe UI&quot;, Ubuntu, &quot;Droid Sans&quot;, sans-serif, &quot;PingFang SC&quot;; font-size: 10px;" transform="translate(36.85009765625,480)"><tspan xml:space="preserve" dy="1em" x="1">2×1024×256</tspan></text><text class="edge-label" id="edge-label-edge-A" style="opacity: 1; font-family: -apple-system, BlinkMacSystemFont, &quot;Segoe WPC&quot;, &quot;Segoe UI&quot;, Ubuntu, &quot;Droid Sans&quot;, sans-serif, &quot;PingFang SC&quot;; font-size: 10px;" transform="translate(164.51708984375,729)"><tspan xml:space="preserve" dy="1em" x="1">2×1024×256</tspan></text></g><g id="nodes" class="nodes"><g id="input-name-Q" class="node graph-input" style="" transform="translate(194.92041015625,0)"><g class="node-item graph-item-input" transform="translate(0,0)"><path d="M5,0h13a5,5 0 0 1 5,5v13a5,5 0 0 1 -5,5h-13a5,5 0 0 1 -5,-5v-13a5,5 0 0 1 5,-5z" style="stroke: rgb(0, 0, 0); fill: rgb(238, 238, 238); stroke-width: 0;"/><text x="6" y="16" style="font-family: -apple-system, BlinkMacSystemFont, &quot;Segoe WPC&quot;, &quot;Segoe UI&quot;, Ubuntu, &quot;Droid Sans&quot;, sans-serif, &quot;PingFang SC&quot;; font-size: 11px; text-rendering: geometricprecision; user-select: none;">Q</text><title>float32[2,1024,256]</title></g><path class="node node-border" d="M5,0h13a5,5 0 0 1 5,5v13a5,5 0 0 1 -5,5h-13a5,5 0 0 1 -5,-5v-13a5,5 0 0 1 5,-5z" style="stroke: rgb(51, 51, 51); fill: none; stroke-width: 1px;"/></g><g id="input-name-K" class="node graph-input" style="" transform="translate(184.07958984375,302)"><g class="node-item graph-item-input" transform="translate(0,0)"><path d="M5,0h11a5,5 0 0 1 5,5v13a5,5 0 0 1 -5,5h-11a5,5 0 0 1 -5,-5v-13a5,5 0 0 1 5,-5z" style="stroke: rgb(0, 0, 0); fill: rgb(238, 238, 238); stroke-width: 0;"/><text x="6" y="16" style="font-family: -apple-system, BlinkMacSystemFont, &quot;Segoe WPC&quot;, &quot;Segoe UI&quot;, Ubuntu, &quot;Droid Sans&quot;, sans-serif, &quot;PingFang SC&quot;; font-size: 11px; text-rendering: geometricprecision; user-select: none;">K</text><title>float32[2,1024,256]</title></g><path class="node node-border" d="M5,0h11a5,5 0 0 1 5,5v13a5,5 0 0 1 -5,5h-11a5,5 0 0 1 -5,-5v-13a5,5 0 0 1 5,-5z" style="stroke: rgb(51, 51, 51); fill: none; stroke-width: 1px;"/></g><g id="input-name-V" class="node graph-input" style="" transform="translate(20.35009765625,432)"><g class="node-item graph-item-input" transform="translate(0,0)"><path d="M5,0h13a5,5 0 0 1 5,5v13a5,5 0 0 1 -5,5h-13a5,5 0 0 1 -5,-5v-13a5,5 0 0 1 5,-5z" style="stroke: rgb(0, 0, 0); fill: rgb(238, 238, 238); stroke-width: 0;"/><text x="6" y="16" style="font-family: -apple-system, BlinkMacSystemFont, &quot;Segoe WPC&quot;, &quot;Segoe UI&quot;, Ubuntu, &quot;Droid Sans&quot;, sans-serif, &quot;PingFang SC&quot;; font-size: 11px; text-rendering: geometricprecision; user-select: none;">V</text><title>float32[2,1024,256]</title></g><path class="node node-border" d="M5,0h13a5,5 0 0 1 5,5v13a5,5 0 0 1 -5,5h-13a5,5 0 0 1 -5,-5v-13a5,5 0 0 1 5,-5z" style="stroke: rgb(51, 51, 51); fill: none; stroke-width: 1px;"/></g><g id="node-name-/Reshape" class="node graph-node" style="" transform="translate(178.9375,87)"><g class="node-item node-item-type node-item-type-shape" transform="translate(0,0)"><path d="M5,0h44.9658203125a5,5 0 0 1 5,5v13a5,5 0 0 1 -5,5h-44.9658203125a5,5 0 0 1 -5,-5v-13a5,5 0 0 1 5,-5z" style="stroke: rgb(0, 0, 0); fill: rgb(108, 79, 71); stroke-width: 0;"/><text x="6" y="16" style="font-family: -apple-system, BlinkMacSystemFont, &quot;Segoe WPC&quot;, &quot;Segoe UI&quot;, Ubuntu, &quot;Droid Sans&quot;, sans-serif, &quot;PingFang SC&quot;; font-size: 11px; text-rendering: geometricprecision; user-select: none; fill: rgb(255, 255, 255);">Reshape</text><title>/Reshape</title></g><path class="node node-border" d="M5,0h44.9658203125a5,5 0 0 1 5,5v13a5,5 0 0 1 -5,5h-44.9658203125a5,5 0 0 1 -5,-5v-13a5,5 0 0 1 5,-5z" style="stroke: rgb(51, 51, 51); fill: none; stroke-width: 1px;"/></g><g id="node-name-/Transpose" class="node graph-node" style="" transform="translate(174.5703125,130)"><g class="node-item node-item-type node-item-type-transform" transform="translate(0,0)"><path d="M5,0h53.7001953125a5,5 0 0 1 5,5v13a5,5 0 0 1 -5,5h-53.7001953125a5,5 0 0 1 -5,-5v-13a5,5 0 0 1 5,-5z" style="stroke: rgb(0, 0, 0); fill: rgb(51, 85, 68); stroke-width: 0;"/><text x="6" y="16" style="font-family: -apple-system, BlinkMacSystemFont, &quot;Segoe WPC&quot;, &quot;Segoe UI&quot;, Ubuntu, &quot;Droid Sans&quot;, sans-serif, &quot;PingFang SC&quot;; font-size: 11px; text-rendering: geometricprecision; user-select: none; fill: rgb(255, 255, 255);">Transpose</text><title>/Transpose</title></g><path class="node node-border" d="M5,0h53.7001953125a5,5 0 0 1 5,5v13a5,5 0 0 1 -5,5h-53.7001953125a5,5 0 0 1 -5,-5v-13a5,5 0 0 1 5,-5z" style="stroke: rgb(51, 51, 51); fill: none; stroke-width: 1px;"/></g><g id="node-name-/Reshape_1" class="node graph-node" style="" transform="translate(167.0966796875,389)"><g class="node-item node-item-type node-item-type-shape" transform="translate(0,0)"><path d="M5,0h44.9658203125a5,5 0 0 1 5,5v13a5,5 0 0 1 -5,5h-44.9658203125a5,5 0 0 1 -5,-5v-13a5,5 0 0 1 5,-5z" style="stroke: rgb(0, 0, 0); fill: rgb(108, 79, 71); stroke-width: 0;"/><text x="6" y="16" style="font-family: -apple-system, BlinkMacSystemFont, &quot;Segoe WPC&quot;, &quot;Segoe UI&quot;, Ubuntu, &quot;Droid Sans&quot;, sans-serif, &quot;PingFang SC&quot;; font-size: 11px; text-rendering: geometricprecision; user-select: none; fill: rgb(255, 255, 255);">Reshape</text><title>/Reshape_1</title></g><path class="node node-border" d="M5,0h44.9658203125a5,5 0 0 1 5,5v13a5,5 0 0 1 -5,5h-44.9658203125a5,5 0 0 1 -5,-5v-13a5,5 0 0 1 5,-5z" style="stroke: rgb(51, 51, 51); fill: none; stroke-width: 1px;"/></g><g id="node-name-/Reshape_2" class="node graph-node" style="" transform="translate(4.3671875,519)"><g class="node-item node-item-type node-item-type-shape" transform="translate(0,0)"><path d="M5,0h44.9658203125a5,5 0 0 1 5,5v13a5,5 0 0 1 -5,5h-44.9658203125a5,5 0 0 1 -5,-5v-13a5,5 0 0 1 5,-5z" style="stroke: rgb(0, 0, 0); fill: rgb(108, 79, 71); stroke-width: 0;"/><text x="6" y="16" style="font-family: -apple-system, BlinkMacSystemFont, &quot;Segoe WPC&quot;, &quot;Segoe UI&quot;, Ubuntu, &quot;Droid Sans&quot;, sans-serif, &quot;PingFang SC&quot;; font-size: 11px; text-rendering: geometricprecision; user-select: none; fill: rgb(255, 255, 255);">Reshape</text><title>/Reshape_2</title></g><path class="node node-border" d="M5,0h44.9658203125a5,5 0 0 1 5,5v13a5,5 0 0 1 -5,5h-44.9658203125a5,5 0 0 1 -5,-5v-13a5,5 0 0 1 5,-5z" style="stroke: rgb(51, 51, 51); fill: none; stroke-width: 1px;"/></g><g id="node-name-/Transpose_1" class="node graph-node" style="" transform="translate(0,562)"><g class="node-item node-item-type node-item-type-transform" transform="translate(0,0)"><path d="M5,0h53.7001953125a5,5 0 0 1 5,5v13a5,5 0 0 1 -5,5h-53.7001953125a5,5 0 0 1 -5,-5v-13a5,5 0 0 1 5,-5z" style="stroke: rgb(0, 0, 0); fill: rgb(51, 85, 68); stroke-width: 0;"/><text x="6" y="16" style="font-family: -apple-system, BlinkMacSystemFont, &quot;Segoe WPC&quot;, &quot;Segoe UI&quot;, Ubuntu, &quot;Droid Sans&quot;, sans-serif, &quot;PingFang SC&quot;; font-size: 11px; text-rendering: geometricprecision; user-select: none; fill: rgb(255, 255, 255);">Transpose</text><title>/Transpose_1</title></g><path class="node node-border" d="M5,0h53.7001953125a5,5 0 0 1 5,5v13a5,5 0 0 1 -5,5h-53.7001953125a5,5 0 0 1 -5,-5v-13a5,5 0 0 1 5,-5z" style="stroke: rgb(51, 51, 51); fill: none; stroke-width: 1px;"/></g><g id="node-name-/Shape" class="node graph-node" style="" transform="translate(265.117919921875,173)"><g class="node-item node-item-type" transform="translate(0,0)"><path d="M5,0h34.13232421875a5,5 0 0 1 5,5v13a5,5 0 0 1 -5,5h-34.13232421875a5,5 0 0 1 -5,-5v-13a5,5 0 0 1 5,-5z" style="stroke: rgb(0, 0, 0); fill: rgb(0, 0, 0); stroke-width: 0;"/><text x="6" y="16" style="font-family: -apple-system, BlinkMacSystemFont, &quot;Segoe WPC&quot;, &quot;Segoe UI&quot;, Ubuntu, &quot;Droid Sans&quot;, sans-serif, &quot;PingFang SC&quot;; font-size: 11px; text-rendering: geometricprecision; user-select: none; fill: rgb(255, 255, 255);">Shape</text><title>/Shape</title></g><path class="node node-border" d="M5,0h34.13232421875a5,5 0 0 1 5,5v13a5,5 0 0 1 -5,5h-34.13232421875a5,5 0 0 1 -5,-5v-13a5,5 0 0 1 5,-5z" style="stroke: rgb(51, 51, 51); fill: none; stroke-width: 1px;"/></g><g id="node-name-/Slice" class="node graph-node" style="" transform="translate(269.0576171875,216)"><g class="node-item node-item-type node-item-type-tensor" transform="translate(0,0)"><path d="M5,0h26.2529296875a5,5 0 0 1 5,5v13a5,5 0 0 1 -5,5h-26.2529296875a5,5 0 0 1 -5,-5v-13a5,5 0 0 1 5,-5z" style="stroke: rgb(0, 0, 0); fill: rgb(89, 66, 59); stroke-width: 0;"/><text x="6" y="16" style="font-family: -apple-system, BlinkMacSystemFont, &quot;Segoe WPC&quot;, &quot;Segoe UI&quot;, Ubuntu, &quot;Droid Sans&quot;, sans-serif, &quot;PingFang SC&quot;; font-size: 11px; text-rendering: geometricprecision; user-select: none; fill: rgb(255, 255, 255);">Slice</text><title>/Slice</title></g><path class="node node-border" d="M5,0h26.2529296875a5,5 0 0 1 5,5v13a5,5 0 0 1 -5,5h-26.2529296875a5,5 0 0 1 -5,-5v-13a5,5 0 0 1 5,-5z" style="stroke: rgb(51, 51, 51); fill: none; stroke-width: 1px;"/></g><g id="node-name-/Cast" class="node graph-node" style="" transform="translate(269.646728515625,259)"><g class="node-item node-item-type" transform="translate(0,0)"><path d="M5,0h25.07470703125a5,5 0 0 1 5,5v13a5,5 0 0 1 -5,5h-25.07470703125a5,5 0 0 1 -5,-5v-13a5,5 0 0 1 5,-5z" style="stroke: rgb(0, 0, 0); fill: rgb(0, 0, 0); stroke-width: 0;"/><text x="6" y="16" style="font-family: -apple-system, BlinkMacSystemFont, &quot;Segoe WPC&quot;, &quot;Segoe UI&quot;, Ubuntu, &quot;Droid Sans&quot;, sans-serif, &quot;PingFang SC&quot;; font-size: 11px; text-rendering: geometricprecision; user-select: none; fill: rgb(255, 255, 255);">Cast</text><title>/Cast</title></g><path class="node node-border" d="M5,0h25.07470703125a5,5 0 0 1 5,5v13a5,5 0 0 1 -5,5h-25.07470703125a5,5 0 0 1 -5,-5v-13a5,5 0 0 1 5,-5z" style="stroke: rgb(51, 51, 51); fill: none; stroke-width: 1px;"/></g><g id="node-name-/Sqrt" class="node graph-node" style="" transform="translate(270.111328125,302)"><g class="node-item node-item-type" transform="translate(0,0)"><path d="M5,0h24.1455078125a5,5 0 0 1 5,5v13a5,5 0 0 1 -5,5h-24.1455078125a5,5 0 0 1 -5,-5v-13a5,5 0 0 1 5,-5z" style="stroke: rgb(0, 0, 0); fill: rgb(0, 0, 0); stroke-width: 0;"/><text x="6" y="16" style="font-family: -apple-system, BlinkMacSystemFont, &quot;Segoe WPC&quot;, &quot;Segoe UI&quot;, Ubuntu, &quot;Droid Sans&quot;, sans-serif, &quot;PingFang SC&quot;; font-size: 11px; text-rendering: geometricprecision; user-select: none; fill: rgb(255, 255, 255);">Sqrt</text><title>/Sqrt</title></g><path class="node node-border" d="M5,0h24.1455078125a5,5 0 0 1 5,5v13a5,5 0 0 1 -5,5h-24.1455078125a5,5 0 0 1 -5,-5v-13a5,5 0 0 1 5,-5z" style="stroke: rgb(51, 51, 51); fill: none; stroke-width: 1px;"/></g><g id="node-name-/Div" class="node graph-node" style="" transform="translate(271.99560546875,345.5)"><g class="node-item node-item-type" transform="translate(0,0)"><path d="M5,0h20.376953125a5,5 0 0 1 5,5v13a5,5 0 0 1 -5,5h-20.376953125a5,5 0 0 1 -5,-5v-13a5,5 0 0 1 5,-5z" style="stroke: rgb(0, 0, 0); fill: rgb(0, 0, 0); stroke-width: 0;"/><text x="6" y="16" style="font-family: -apple-system, BlinkMacSystemFont, &quot;Segoe WPC&quot;, &quot;Segoe UI&quot;, Ubuntu, &quot;Droid Sans&quot;, sans-serif, &quot;PingFang SC&quot;; font-size: 11px; text-rendering: geometricprecision; user-select: none; fill: rgb(255, 255, 255);">Div</text><title>/Div</title></g><path class="node node-border" d="M5,0h20.376953125a5,5 0 0 1 5,5v13a5,5 0 0 1 -5,5h-20.376953125a5,5 0 0 1 -5,-5v-13a5,5 0 0 1 5,-5z" style="stroke: rgb(51, 51, 51); fill: none; stroke-width: 1px;"/></g><g id="node-name-/Cast_1" class="node graph-node" style="" transform="translate(269.646728515625,389)"><g class="node-item node-item-type" transform="translate(0,0)"><path d="M5,0h25.07470703125a5,5 0 0 1 5,5v13a5,5 0 0 1 -5,5h-25.07470703125a5,5 0 0 1 -5,-5v-13a5,5 0 0 1 5,-5z" style="stroke: rgb(0, 0, 0); fill: rgb(0, 0, 0); stroke-width: 0;"/><text x="6" y="16" style="font-family: -apple-system, BlinkMacSystemFont, &quot;Segoe WPC&quot;, &quot;Segoe UI&quot;, Ubuntu, &quot;Droid Sans&quot;, sans-serif, &quot;PingFang SC&quot;; font-size: 11px; text-rendering: geometricprecision; user-select: none; fill: rgb(255, 255, 255);">Cast</text><title>/Cast_1</title></g><path class="node node-border" d="M5,0h25.07470703125a5,5 0 0 1 5,5v13a5,5 0 0 1 -5,5h-25.07470703125a5,5 0 0 1 -5,-5v-13a5,5 0 0 1 5,-5z" style="stroke: rgb(51, 51, 51); fill: none; stroke-width: 1px;"/></g><g id="node-name-/Transpose_2" class="node graph-node" style="" transform="translate(181.265869140625,432)"><g class="node-item node-item-type node-item-type-transform" transform="translate(0,0)"><path d="M5,0h53.7001953125a5,5 0 0 1 5,5v13a5,5 0 0 1 -5,5h-53.7001953125a5,5 0 0 1 -5,-5v-13a5,5 0 0 1 5,-5z" style="stroke: rgb(0, 0, 0); fill: rgb(51, 85, 68); stroke-width: 0;"/><text x="6" y="16" style="font-family: -apple-system, BlinkMacSystemFont, &quot;Segoe WPC&quot;, &quot;Segoe UI&quot;, Ubuntu, &quot;Droid Sans&quot;, sans-serif, &quot;PingFang SC&quot;; font-size: 11px; text-rendering: geometricprecision; user-select: none; fill: rgb(255, 255, 255);">Transpose</text><title>/Transpose_2</title></g><path class="node node-border" d="M5,0h53.7001953125a5,5 0 0 1 5,5v13a5,5 0 0 1 -5,5h-53.7001953125a5,5 0 0 1 -5,-5v-13a5,5 0 0 1 5,-5z" style="stroke: rgb(51, 51, 51); fill: none; stroke-width: 1px;"/></g><g id="node-name-/Sqrt_1" class="node graph-node" style="" transform="translate(127.120361328125,432)"><g class="node-item node-item-type" transform="translate(0,0)"><path d="M5,0h24.1455078125a5,5 0 0 1 5,5v13a5,5 0 0 1 -5,5h-24.1455078125a5,5 0 0 1 -5,-5v-13a5,5 0 0 1 5,-5z" style="stroke: rgb(0, 0, 0); fill: rgb(0, 0, 0); stroke-width: 0;"/><text x="6" y="16" style="font-family: -apple-system, BlinkMacSystemFont, &quot;Segoe WPC&quot;, &quot;Segoe UI&quot;, Ubuntu, &quot;Droid Sans&quot;, sans-serif, &quot;PingFang SC&quot;; font-size: 11px; text-rendering: geometricprecision; user-select: none; fill: rgb(255, 255, 255);">Sqrt</text><title>/Sqrt_1</title></g><path class="node node-border" d="M5,0h24.1455078125a5,5 0 0 1 5,5v13a5,5 0 0 1 -5,5h-24.1455078125a5,5 0 0 1 -5,-5v-13a5,5 0 0 1 5,-5z" style="stroke: rgb(51, 51, 51); fill: none; stroke-width: 1px;"/></g><g id="node-name-/Mul" class="node graph-node" style="" transform="translate(109.26611328125,475.5)"><g class="node-item node-item-type" transform="translate(0,0)"><path d="M5,0h22.78125a5,5 0 0 1 5,5v13a5,5 0 0 1 -5,5h-22.78125a5,5 0 0 1 -5,-5v-13a5,5 0 0 1 5,-5z" style="stroke: rgb(0, 0, 0); fill: rgb(0, 0, 0); stroke-width: 0;"/><text x="6" y="16" style="font-family: -apple-system, BlinkMacSystemFont, &quot;Segoe WPC&quot;, &quot;Segoe UI&quot;, Ubuntu, &quot;Droid Sans&quot;, sans-serif, &quot;PingFang SC&quot;; font-size: 11px; text-rendering: geometricprecision; user-select: none; fill: rgb(255, 255, 255);">Mul</text><title>/Mul</title></g><path class="node node-border" d="M5,0h22.78125a5,5 0 0 1 5,5v13a5,5 0 0 1 -5,5h-22.78125a5,5 0 0 1 -5,-5v-13a5,5 0 0 1 5,-5z" style="stroke: rgb(51, 51, 51); fill: none; stroke-width: 1px;"/></g><g id="node-name-/Sqrt_2" class="node graph-node" style="" transform="translate(288.647705078125,432)"><g class="node-item node-item-type" transform="translate(0,0)"><path d="M5,0h24.1455078125a5,5 0 0 1 5,5v13a5,5 0 0 1 -5,5h-24.1455078125a5,5 0 0 1 -5,-5v-13a5,5 0 0 1 5,-5z" style="stroke: rgb(0, 0, 0); fill: rgb(0, 0, 0); stroke-width: 0;"/><text x="6" y="16" style="font-family: -apple-system, BlinkMacSystemFont, &quot;Segoe WPC&quot;, &quot;Segoe UI&quot;, Ubuntu, &quot;Droid Sans&quot;, sans-serif, &quot;PingFang SC&quot;; font-size: 11px; text-rendering: geometricprecision; user-select: none; fill: rgb(255, 255, 255);">Sqrt</text><title>/Sqrt_2</title></g><path class="node node-border" d="M5,0h24.1455078125a5,5 0 0 1 5,5v13a5,5 0 0 1 -5,5h-24.1455078125a5,5 0 0 1 -5,-5v-13a5,5 0 0 1 5,-5z" style="stroke: rgb(51, 51, 51); fill: none; stroke-width: 1px;"/></g><g id="node-name-/Mul_1" class="node graph-node" style="" transform="translate(270.79345703125,475.5)"><g class="node-item node-item-type" transform="translate(0,0)"><path d="M5,0h22.78125a5,5 0 0 1 5,5v13a5,5 0 0 1 -5,5h-22.78125a5,5 0 0 1 -5,-5v-13a5,5 0 0 1 5,-5z" style="stroke: rgb(0, 0, 0); fill: rgb(0, 0, 0); stroke-width: 0;"/><text x="6" y="16" style="font-family: -apple-system, BlinkMacSystemFont, &quot;Segoe WPC&quot;, &quot;Segoe UI&quot;, Ubuntu, &quot;Droid Sans&quot;, sans-serif, &quot;PingFang SC&quot;; font-size: 11px; text-rendering: geometricprecision; user-select: none; fill: rgb(255, 255, 255);">Mul</text><title>/Mul_1</title></g><path class="node node-border" d="M5,0h22.78125a5,5 0 0 1 5,5v13a5,5 0 0 1 -5,5h-22.78125a5,5 0 0 1 -5,-5v-13a5,5 0 0 1 5,-5z" style="stroke: rgb(51, 51, 51); fill: none; stroke-width: 1px;"/></g><g id="node-name-/MatMul" class="node graph-node" style="" transform="translate(180.43603515625,519)"><g class="node-item node-item-type" transform="translate(0,0)"><path d="M5,0h41.96875a5,5 0 0 1 5,5v13a5,5 0 0 1 -5,5h-41.96875a5,5 0 0 1 -5,-5v-13a5,5 0 0 1 5,-5z" style="stroke: rgb(0, 0, 0); fill: rgb(0, 0, 0); stroke-width: 0;"/><text x="6" y="16" style="font-family: -apple-system, BlinkMacSystemFont, &quot;Segoe WPC&quot;, &quot;Segoe UI&quot;, Ubuntu, &quot;Droid Sans&quot;, sans-serif, &quot;PingFang SC&quot;; font-size: 11px; text-rendering: geometricprecision; user-select: none; fill: rgb(255, 255, 255);">MatMul</text><title>/MatMul</title></g><path class="node node-border" d="M5,0h41.96875a5,5 0 0 1 5,5v13a5,5 0 0 1 -5,5h-41.96875a5,5 0 0 1 -5,-5v-13a5,5 0 0 1 5,-5z" style="stroke: rgb(51, 51, 51); fill: none; stroke-width: 1px;"/></g><g id="node-name-/Softmax" class="node graph-node" style="" transform="translate(179.155029296875,562)"><g class="node-item node-item-type node-item-type-activation" transform="translate(0,0)"><path d="M5,0h44.53076171875a5,5 0 0 1 5,5v13a5,5 0 0 1 -5,5h-44.53076171875a5,5 0 0 1 -5,-5v-13a5,5 0 0 1 5,-5z" style="stroke: rgb(0, 0, 0); fill: rgb(112, 41, 33); stroke-width: 0;"/><text x="6" y="16" style="font-family: -apple-system, BlinkMacSystemFont, &quot;Segoe WPC&quot;, &quot;Segoe UI&quot;, Ubuntu, &quot;Droid Sans&quot;, sans-serif, &quot;PingFang SC&quot;; font-size: 11px; text-rendering: geometricprecision; user-select: none; fill: rgb(255, 255, 255);">Softmax</text><title>/Softmax</title></g><path class="node node-border" d="M5,0h44.53076171875a5,5 0 0 1 5,5v13a5,5 0 0 1 -5,5h-44.53076171875a5,5 0 0 1 -5,-5v-13a5,5 0 0 1 5,-5z" style="stroke: rgb(51, 51, 51); fill: none; stroke-width: 1px;"/></g><g id="node-name-/MatMul_1" class="node graph-node" style="" transform="translate(133.53271484375,605)"><g class="node-item node-item-type" transform="translate(0,0)"><path d="M5,0h41.96875a5,5 0 0 1 5,5v13a5,5 0 0 1 -5,5h-41.96875a5,5 0 0 1 -5,-5v-13a5,5 0 0 1 5,-5z" style="stroke: rgb(0, 0, 0); fill: rgb(0, 0, 0); stroke-width: 0;"/><text x="6" y="16" style="font-family: -apple-system, BlinkMacSystemFont, &quot;Segoe WPC&quot;, &quot;Segoe UI&quot;, Ubuntu, &quot;Droid Sans&quot;, sans-serif, &quot;PingFang SC&quot;; font-size: 11px; text-rendering: geometricprecision; user-select: none; fill: rgb(255, 255, 255);">MatMul</text><title>/MatMul_1</title></g><path class="node node-border" d="M5,0h41.96875a5,5 0 0 1 5,5v13a5,5 0 0 1 -5,5h-41.96875a5,5 0 0 1 -5,-5v-13a5,5 0 0 1 5,-5z" style="stroke: rgb(51, 51, 51); fill: none; stroke-width: 1px;"/></g><g id="node-name-/Transpose_3" class="node graph-node" style="" transform="translate(127.6669921875,648)"><g class="node-item node-item-type node-item-type-transform" transform="translate(0,0)"><path d="M5,0h53.7001953125a5,5 0 0 1 5,5v13a5,5 0 0 1 -5,5h-53.7001953125a5,5 0 0 1 -5,-5v-13a5,5 0 0 1 5,-5z" style="stroke: rgb(0, 0, 0); fill: rgb(51, 85, 68); stroke-width: 0;"/><text x="6" y="16" style="font-family: -apple-system, BlinkMacSystemFont, &quot;Segoe WPC&quot;, &quot;Segoe UI&quot;, Ubuntu, &quot;Droid Sans&quot;, sans-serif, &quot;PingFang SC&quot;; font-size: 11px; text-rendering: geometricprecision; user-select: none; fill: rgb(255, 255, 255);">Transpose</text><title>/Transpose_3</title></g><path class="node node-border" d="M5,0h53.7001953125a5,5 0 0 1 5,5v13a5,5 0 0 1 -5,5h-53.7001953125a5,5 0 0 1 -5,-5v-13a5,5 0 0 1 5,-5z" style="stroke: rgb(51, 51, 51); fill: none; stroke-width: 1px;"/></g><g id="node-name-/Reshape_3" class="node graph-node" style="" transform="translate(132.0341796875,691)"><g class="node-item node-item-type node-item-type-shape" transform="translate(0,0)"><path d="M5,0h44.9658203125a5,5 0 0 1 5,5v13a5,5 0 0 1 -5,5h-44.9658203125a5,5 0 0 1 -5,-5v-13a5,5 0 0 1 5,-5z" style="stroke: rgb(0, 0, 0); fill: rgb(108, 79, 71); stroke-width: 0;"/><text x="6" y="16" style="font-family: -apple-system, BlinkMacSystemFont, &quot;Segoe WPC&quot;, &quot;Segoe UI&quot;, Ubuntu, &quot;Droid Sans&quot;, sans-serif, &quot;PingFang SC&quot;; font-size: 11px; text-rendering: geometricprecision; user-select: none; fill: rgb(255, 255, 255);">Reshape</text><title>/Reshape_3</title></g><path class="node node-border" d="M5,0h44.9658203125a5,5 0 0 1 5,5v13a5,5 0 0 1 -5,5h-44.9658203125a5,5 0 0 1 -5,-5v-13a5,5 0 0 1 5,-5z" style="stroke: rgb(51, 51, 51); fill: none; stroke-width: 1px;"/></g><g class="node" style="" transform="translate(148.01708984375,758)"><g class="node-item graph-item-output" transform="translate(0,0)"><path d="M5,0h13a5,5 0 0 1 5,5v13a5,5 0 0 1 -5,5h-13a5,5 0 0 1 -5,-5v-13a5,5 0 0 1 5,-5z" style="stroke: rgb(0, 0, 0); fill: rgb(238, 238, 238); stroke-width: 0;"/><text x="6" y="16" style="font-family: -apple-system, BlinkMacSystemFont, &quot;Segoe WPC&quot;, &quot;Segoe UI&quot;, Ubuntu, &quot;Droid Sans&quot;, sans-serif, &quot;PingFang SC&quot;; font-size: 11px; text-rendering: geometricprecision; user-select: none;">A</text><title>float32[2,1024,256]</title></g><path class="node node-border" d="M5,0h13a5,5 0 0 1 5,5v13a5,5 0 0 1 -5,5h-13a5,5 0 0 1 -5,-5v-13a5,5 0 0 1 5,-5z" style="stroke: rgb(51, 51, 51); fill: none; stroke-width: 1px;"/></g></g></g></svg>