<svg xmlns="http://www.w3.org/2000/svg" id="export" class="canvas" preserveAspectRatio="xMidYMid meet" style="" width="248" height="195"><rect id="background" fill="#fff" pointer-events="all" width="248" height="195"/><g id="origin" transform="translate(8.85, 8.85) scale(1)"><g id="clusters" class="clusters"/><g id="edge-paths" class="edge-paths"><defs><marker id="arrowhead" viewBox="0 0 10 10" refX="9" refY="5" markerUnits="strokeWidth" markerWidth="8" markerHeight="6" orient="auto" style="fill: rgb(0, 0, 0);"><path d="M 0 0 L 10 5 L 0 10 L 4 5 z" style="stroke-width: 1;"/></marker><marker id="arrowhead-select" viewBox="0 0 10 10" refX="9" refY="5" markerUnits="strokeWidth" markerWidth="8" markerHeight="6" orient="auto" style="fill: rgba(220, 0, 0, 0.9);"><path d="M 0 0 L 10 5 L 0 10 L 4 5 z" style="stroke-width: 1;"/></marker><marker id="arrowhead-hover" viewBox="0 0 10 10" refX="9" refY="5" markerUnits="strokeWidth" markerWidth="8" markerHeight="6" orient="auto" style="fill: rgba(220, 0, 0, 0.9);"><path d="M 0 0 L 10 5 L 0 10 L 4 5 z" style="stroke-width: 1;"/></marker></defs><path id="edge-Q" class="edge-path" d="M11.5,23L11.5,24.666666666666668C11.5,26.333333333333332,11.5,29.666666666666668,11.5,35C11.5,40.333333333333336,11.5,47.666666666666664,11.5,55C11.5,62.333333333333336,11.5,69.66666666666667,17.501241521317827,75C23.502483042635657,80.33333333333333,35.50496608527131,83.66666666666667,41.50620760658914,85.33333333333333L47.50744912790697,87" style="stroke: rgb(0, 0, 0); stroke-width: 1px; fill: none; marker-end: url(&quot;#arrowhead&quot;);"/><path class="edge-path-hit-test" d="M11.5,23L11.5,24.666666666666668C11.5,26.333333333333332,11.5,29.666666666666668,11.5,35C11.5,40.333333333333336,11.5,47.666666666666664,11.5,55C11.5,62.333333333333336,11.5,69.66666666666667,17.501241521317827,75C23.502483042635657,80.33333333333333,35.50496608527131,83.66666666666667,41.50620760658914,85.33333333333333L47.50744912790697,87" style="pointer-events: stroke; stroke-width: 0.5em; fill: none; stroke: rgb(0, 0, 0); stroke-opacity: 0.001;"/><path id="edge-K" class="edge-path" d="M88.916015625,23L88.916015625,24.666666666666668C88.916015625,26.333333333333332,88.916015625,29.666666666666668,88.916015625,35C88.916015625,40.333333333333336,88.916015625,47.666666666666664,88.916015625,55C88.916015625,62.333333333333336,88.916015625,69.66666666666667,88.916015625,75C88.916015625,80.33333333333333,88.916015625,83.66666666666667,88.916015625,85.33333333333333L88.916015625,87" style="stroke: rgb(0, 0, 0); stroke-width: 1px; fill: none; marker-end: url(&quot;#arrowhead&quot;);"/><path class="edge-path-hit-test" d="M88.916015625,23L88.916015625,24.666666666666668C88.916015625,26.333333333333332,88.916015625,29.666666666666668,88.916015625,35C88.916015625,40.333333333333336,88.916015625,47.666666666666664,88.916015625,55C88.916015625,62.333333333333336,88.916015625,69.66666666666667,88.916015625,75C88.916015625,80.33333333333333,88.916015625,83.66666666666667,88.916015625,85.33333333333333L88.916015625,87" style="pointer-events: stroke; stroke-width: 0.5em; fill: none; stroke: rgb(0, 0, 0); stroke-opacity: 0.001;"/><path id="edge-V" class="edge-path" d="M166.33203125,23L166.33203125,24.666666666666668C166.33203125,26.333333333333332,166.33203125,29.666666666666668,166.33203125,35C166.33203125,40.333333333333336,166.33203125,47.666666666666664,166.33203125,55C166.33203125,62.333333333333336,166.33203125,69.66666666666667,160.33078972868216,75C154.32954820736435,80.33333333333333,142.32706516472868,83.66666666666667,136.32582364341087,85.33333333333333L130.32458212209303,87" style="stroke: rgb(0, 0, 0); stroke-width: 1px; fill: none; marker-end: url(&quot;#arrowhead&quot;);"/><path class="edge-path-hit-test" d="M166.33203125,23L166.33203125,24.666666666666668C166.33203125,26.333333333333332,166.33203125,29.666666666666668,166.33203125,35C166.33203125,40.333333333333336,166.33203125,47.666666666666664,166.33203125,55C166.33203125,62.333333333333336,166.33203125,69.66666666666667,160.33078972868216,75C154.32954820736435,80.33333333333333,142.32706516472868,83.66666666666667,136.32582364341087,85.33333333333333L130.32458212209303,87" style="pointer-events: stroke; stroke-width: 0.5em; fill: none; stroke: rgb(0, 0, 0); stroke-opacity: 0.001;"/><path id="edge-A" class="edge-path" d="M88.916015625,110L88.916015625,113.66666666666667C88.916015625,117.33333333333333,88.916015625,124.66666666666667,88.916015625,132C88.916015625,139.33333333333334,88.916015625,146.66666666666666,88.916015625,150.33333333333334L88.916015625,154" style="stroke: rgb(0, 0, 0); stroke-width: 1px; fill: none; marker-end: url(&quot;#arrowhead&quot;);"/><path class="edge-path-hit-test" d="M88.916015625,110L88.916015625,113.66666666666667C88.916015625,117.33333333333333,88.916015625,124.66666666666667,88.916015625,132C88.916015625,139.33333333333334,88.916015625,146.66666666666666,88.916015625,150.33333333333334L88.916015625,154" style="pointer-events: stroke; stroke-width: 0.5em; fill: none; stroke: rgb(0, 0, 0); stroke-opacity: 0.001;"/></g><g id="edge-labels" class="edge-labels"><text class="edge-label" id="edge-label-edge-Q" style="opacity: 1; font-family: -apple-system, BlinkMacSystemFont, &quot;Segoe WPC&quot;, &quot;Segoe UI&quot;, Ubuntu, &quot;Droid Sans&quot;, sans-serif, &quot;PingFang SC&quot;; font-size: 10px;" transform="translate(16.5,48)"><tspan xml:space="preserve" dy="1em" x="1">2×1024×256</tspan></text><text class="edge-label" id="edge-label-edge-K" style="opacity: 1; font-family: -apple-system, BlinkMacSystemFont, &quot;Segoe WPC&quot;, &quot;Segoe UI&quot;, Ubuntu, &quot;Droid Sans&quot;, sans-serif, &quot;PingFang SC&quot;; font-size: 10px;" transform="translate(93.916015625,48)"><tspan xml:space="preserve" dy="1em" x="1">2×1024×256</tspan></text><text class="edge-label" id="edge-label-edge-V" style="opacity: 1; font-family: -apple-system, BlinkMacSystemFont, &quot;Segoe WPC&quot;, &quot;Segoe UI&quot;, Ubuntu, &quot;Droid Sans&quot;, sans-serif, &quot;PingFang SC&quot;; font-size: 10px;" transform="translate(171.33203125,48)"><tspan xml:space="preserve" dy="1em" x="1">2×1024×256</tspan></text><text class="edge-label" id="edge-label-edge-A" style="opacity: 1; font-family: -apple-system, BlinkMacSystemFont, &quot;Segoe WPC&quot;, &quot;Segoe UI&quot;, Ubuntu, &quot;Droid Sans&quot;, sans-serif, &quot;PingFang SC&quot;; font-size: 10px;" transform="translate(93.916015625,125)"><tspan xml:space="preserve" dy="1em" x="1">2×1024×256</tspan></text></g><g id="nodes" class="nodes"><g id="input-name-Q" class="node graph-input" style="" transform="translate(0,0)"><g class="node-item graph-item-input" transform="translate(0,0)"><path d="M5,0h13a5,5 0 0 1 5,5v13a5,5 0 0 1 -5,5h-13a5,5 0 0 1 -5,-5v-13a5,5 0 0 1 5,-5z" style="stroke: rgb(0, 0, 0); fill: rgb(238, 238, 238); stroke-width: 0;"/><text x="6" y="16" style="font-family: -apple-system, BlinkMacSystemFont, &quot;Segoe WPC&quot;, &quot;Segoe UI&quot;, Ubuntu, &quot;Droid Sans&quot;, sans-serif, &quot;PingFang SC&quot;; font-size: 11px; text-rendering: geometricprecision; user-select: none;">Q</text><title>float32[2,1024,256]</title></g><path class="node node-border" d="M5,0h13a5,5 0 0 1 5,5v13a5,5 0 0 1 -5,5h-13a5,5 0 0 1 -5,-5v-13a5,5 0 0 1 5,-5z" style="stroke: rgb(51, 51, 51); fill: none; stroke-width: 1px;"/></g><g id="input-name-K" class="node graph-input" style="" transform="translate(78.416015625,0)"><g class="node-item graph-item-input" transform="translate(0,0)"><path d="M5,0h11a5,5 0 0 1 5,5v13a5,5 0 0 1 -5,5h-11a5,5 0 0 1 -5,-5v-13a5,5 0 0 1 5,-5z" style="stroke: rgb(0, 0, 0); fill: rgb(238, 238, 238); stroke-width: 0;"/><text x="6" y="16" style="font-family: -apple-system, BlinkMacSystemFont, &quot;Segoe WPC&quot;, &quot;Segoe UI&quot;, Ubuntu, &quot;Droid Sans&quot;, sans-serif, &quot;PingFang SC&quot;; font-size: 11px; text-rendering: geometricprecision; user-select: none;">K</text><title>float32[2,1024,256]</title></g><path class="node node-border" d="M5,0h11a5,5 0 0 1 5,5v13a5,5 0 0 1 -5,5h-11a5,5 0 0 1 -5,-5v-13a5,5 0 0 1 5,-5z" style="stroke: rgb(51, 51, 51); fill: none; stroke-width: 1px;"/></g><g id="input-name-V" class="node graph-input" style="" transform="translate(154.83203125,0)"><g class="node-item graph-item-input" transform="translate(0,0)"><path d="M5,0h13a5,5 0 0 1 5,5v13a5,5 0 0 1 -5,5h-13a5,5 0 0 1 -5,-5v-13a5,5 0 0 1 5,-5z" style="stroke: rgb(0, 0, 0); fill: rgb(238, 238, 238); stroke-width: 0;"/><text x="6" y="16" style="font-family: -apple-system, BlinkMacSystemFont, &quot;Segoe WPC&quot;, &quot;Segoe UI&quot;, Ubuntu, &quot;Droid Sans&quot;, sans-serif, &quot;PingFang SC&quot;; font-size: 11px; text-rendering: geometricprecision; user-select: none;">V</text><title>float32[2,1024,256]</title></g><path class="node node-border" d="M5,0h13a5,5 0 0 1 5,5v13a5,5 0 0 1 -5,5h-13a5,5 0 0 1 -5,-5v-13a5,5 0 0 1 5,-5z" style="stroke: rgb(51, 51, 51); fill: none; stroke-width: 1px;"/></g><g id="node-name-/MultiHeadAttention" class="node graph-node" style="" transform="translate(33.720703125,87)"><g class="node-item node-item-type node-item-type-attention" transform="translate(0,0)"><path d="M5,0h100.390625a5,5 0 0 1 5,5v13a5,5 0 0 1 -5,5h-100.390625a5,5 0 0 1 -5,-5v-13a5,5 0 0 1 5,-5z" style="stroke: rgb(0, 0, 0); fill: rgb(120, 60, 0); stroke-width: 0;"/><text x="6" y="16" style="font-family: -apple-system, BlinkMacSystemFont, &quot;Segoe WPC&quot;, &quot;Segoe UI&quot;, Ubuntu, &quot;Droid Sans&quot;, sans-serif, &quot;PingFang SC&quot;; font-size: 11px; text-rendering: geometricprecision; user-select: none; fill: rgb(255, 255, 255);">MultiHeadAttention</text><title>/MultiHeadAttention</title></g><path class="node node-border" d="M5,0h100.390625a5,5 0 0 1 5,5v13a5,5 0 0 1 -5,5h-100.390625a5,5 0 0 1 -5,-5v-13a5,5 0 0 1 5,-5z" style="stroke: rgb(51, 51, 51); fill: none; stroke-width: 1px;"/></g><g class="node" style="" transform="translate(77.416015625,154)"><g class="node-item graph-item-output" transform="translate(0,0)"><path d="M5,0h13a5,5 0 0 1 5,5v13a5,5 0 0 1 -5,5h-13a5,5 0 0 1 -5,-5v-13a5,5 0 0 1 5,-5z" style="stroke: rgb(0, 0, 0); fill: rgb(238, 238, 238); stroke-width: 0;"/><text x="6" y="16" style="font-family: -apple-system, BlinkMacSystemFont, &quot;Segoe WPC&quot;, &quot;Segoe UI&quot;, Ubuntu, &quot;Droid Sans&quot;, sans-serif, &quot;PingFang SC&quot;; font-size: 11px; text-rendering: geometricprecision; user-select: none;">A</text><title>float32[2,1024,256]</title></g><path class="node node-border" d="M5,0h13a5,5 0 0 1 5,5v13a5,5 0 0 1 -5,5h-13a5,5 0 0 1 -5,-5v-13a5,5 0 0 1 5,-5z" style="stroke: rgb(51, 51, 51); fill: none; stroke-width: 1px;"/></g></g></g></svg>